<svg xmlns="http://www.w3.org/2000/svg" xmlns:xlink="http://www.w3.org/1999/xlink" width="2000" zoomAndPan="magnify" viewBox="0 0 1500 374.999991" height="500" preserveAspectRatio="xMidYMid meet" version="1.0"><defs><g/><clipPath id="2d3bcde060"><path d="M 591.484375 294.113281 L 1025.042969 294.113281 L 1025.042969 341.101562 L 591.484375 341.101562 Z M 591.484375 294.113281 " clip-rule="nonzero"/></clipPath><clipPath id="e0b8316dcb"><path d="M 0.484375 0.113281 L 434 0.113281 L 434 47.101562 L 0.484375 47.101562 Z M 0.484375 0.113281 " clip-rule="nonzero"/></clipPath><clipPath id="ae59f43b21"><rect x="0" width="435" y="0" height="48"/></clipPath><clipPath id="17eea198ff"><path d="M 583.171875 294.113281 L 593.132812 294.113281 L 593.132812 341.101562 L 583.171875 341.101562 Z M 583.171875 294.113281 " clip-rule="nonzero"/></clipPath><clipPath id="8c8084a0ec"><path d="M 0.171875 0.113281 L 10.132812 0.113281 L 10.132812 47.101562 L 0.171875 47.101562 Z M 0.171875 0.113281 " clip-rule="nonzero"/></clipPath><clipPath id="6677906213"><rect x="0" width="11" y="0" height="48"/></clipPath><clipPath id="c2c97cf93c"><path d="M 575.308594 295.015625 L 585.273438 295.015625 L 585.273438 341.101562 L 575.308594 341.101562 Z M 575.308594 295.015625 " clip-rule="nonzero"/></clipPath><clipPath id="a0820127c8"><path d="M 0.308594 0.015625 L 10.273438 0.015625 L 10.273438 46.101562 L 0.308594 46.101562 Z M 0.308594 0.015625 " clip-rule="nonzero"/></clipPath><clipPath id="2c27a3ce00"><rect x="0" width="11" y="0" height="47"/></clipPath><clipPath id="5f351a89f7"><path d="M 569.007812 299.664062 L 577.621094 299.664062 L 577.621094 341.101562 L 569.007812 341.101562 Z M 569.007812 299.664062 " clip-rule="nonzero"/></clipPath><clipPath id="40f0dc254c"><path d="M 0.0078125 0.664062 L 8.621094 0.664062 L 8.621094 42.101562 L 0.0078125 42.101562 Z M 0.0078125 0.664062 " clip-rule="nonzero"/></clipPath><clipPath id="73a2a9b98d"><rect x="0" width="9" y="0" height="43"/></clipPath><clipPath id="28b1768dfa"><path d="M 935.523438 294.113281 L 1133.75 294.113281 L 1133.75 341.101562 L 935.523438 341.101562 Z M 935.523438 294.113281 " clip-rule="nonzero"/></clipPath><clipPath id="c18451b2fd"><path d="M 1088.726562 295.6875 L 1132.648438 315.988281 C 1133.261719 316.273438 1133.652344 316.886719 1133.652344 317.5625 C 1133.652344 318.238281 1133.261719 318.855469 1132.648438 319.136719 L 1088.726562 339.441406 C 1086.484375 340.476562 1084.042969 341.015625 1081.574219 341.015625 L 987.617188 341.015625 C 985.144531 341.015625 982.703125 340.476562 980.460938 339.441406 L 936.542969 319.136719 C 935.925781 318.855469 935.535156 318.238281 935.535156 317.5625 C 935.535156 316.886719 935.925781 316.273438 936.542969 315.988281 L 980.460938 295.6875 C 982.703125 294.648438 985.144531 294.113281 987.617188 294.113281 L 1081.574219 294.113281 C 1084.042969 294.113281 1086.484375 294.648438 1088.726562 295.6875 Z M 1088.726562 295.6875 " clip-rule="nonzero"/></clipPath><clipPath id="f8ba6702c3"><path d="M 0.523438 0.113281 L 198.75 0.113281 L 198.75 47.039062 L 0.523438 47.039062 Z M 0.523438 0.113281 " clip-rule="nonzero"/></clipPath><clipPath id="c5cd80043a"><path d="M 153.726562 1.6875 L 197.648438 21.988281 C 198.261719 22.273438 198.652344 22.886719 198.652344 23.5625 C 198.652344 24.238281 198.261719 24.855469 197.648438 25.136719 L 153.726562 45.441406 C 151.484375 46.476562 149.042969 47.015625 146.574219 47.015625 L 52.617188 47.015625 C 50.144531 47.015625 47.703125 46.476562 45.460938 45.441406 L 1.542969 25.136719 C 0.925781 24.855469 0.535156 24.238281 0.535156 23.5625 C 0.535156 22.886719 0.925781 22.273438 1.542969 21.988281 L 45.460938 1.6875 C 47.703125 0.648438 50.144531 0.113281 52.617188 0.113281 L 146.574219 0.113281 C 149.042969 0.113281 151.484375 0.648438 153.726562 1.6875 Z M 153.726562 1.6875 " clip-rule="nonzero"/></clipPath><clipPath id="a4f13e6c17"><rect x="0" width="199" y="0" height="48"/></clipPath></defs><g fill="#000000" fill-opacity="1"><g transform="translate(373.494838, 272.554753)"><g><path d="M 75.546875 18.46875 C 98.648438 21.6875 126.769531 23.296875 159.90625 23.296875 C 178.65625 23.296875 195.414062 22.726562 210.1875 21.59375 L 195.40625 68.734375 C 178.9375 67.597656 156.546875 63.003906 128.234375 54.953125 C 99.929688 46.910156 76.972656 38.628906 59.359375 30.109375 L 59.359375 12.5 L 84.640625 3.40625 C 60.785156 0.757812 41.847656 -8.5625 27.828125 -24.5625 C 13.816406 -40.5625 6.8125 -62.289062 6.8125 -89.75 C 6.8125 -102.4375 9.175781 -115.691406 13.90625 -129.515625 C 18.644531 -143.335938 25.367188 -155.550781 34.078125 -166.15625 C 42.984375 -174.675781 53.257812 -181.539062 64.90625 -186.75 C 76.550781 -191.957031 88.90625 -194.5625 101.96875 -194.5625 C 120.519531 -194.5625 136.753906 -190.960938 150.671875 -183.765625 C 164.597656 -176.566406 175.394531 -165.960938 183.0625 -151.953125 C 190.726562 -137.941406 194.5625 -120.804688 194.5625 -100.546875 C 194.5625 -87.671875 192.285156 -74.367188 187.734375 -60.640625 C 183.191406 -46.910156 176.566406 -34.742188 167.859375 -24.140625 C 156.117188 -13.160156 142.863281 -5.207031 128.09375 -0.28125 Z M 57.375 -109.640625 C 57.375 -87.671875 60.210938 -69.960938 65.890625 -56.515625 C 71.578125 -43.078125 80.191406 -33.1875 91.734375 -26.84375 C 103.285156 -20.5 118.25 -16.851562 136.625 -15.90625 C 138.894531 -25.375 140.738281 -36.5 142.15625 -49.28125 C 143.570312 -62.0625 144.28125 -72.523438 144.28125 -80.671875 C 144.28125 -102.816406 141.394531 -120.660156 135.625 -134.203125 C 129.851562 -147.742188 121.09375 -157.734375 109.34375 -164.171875 C 97.601562 -170.609375 82.644531 -174.207031 64.46875 -174.96875 C 62.382812 -165.113281 60.679688 -153.65625 59.359375 -140.59375 C 58.035156 -127.53125 57.375 -117.210938 57.375 -109.640625 Z M 57.375 -109.640625 "/></g></g></g><g fill="#000000" fill-opacity="1"><g transform="translate(574.868175, 272.554753)"><g><path d="M 129.796875 -98.5625 C 139.835938 -98.5625 148.40625 -96.523438 155.5 -92.453125 C 162.601562 -88.378906 167.953125 -83.125 171.546875 -76.6875 C 175.148438 -70.25 176.953125 -63.429688 176.953125 -56.234375 C 176.953125 -38.628906 169.425781 -24.851562 154.375 -14.90625 C 139.320312 -4.96875 117.304688 0 88.328125 0 L 10.21875 0 L 10.21875 -9.9375 L 24.140625 -10.21875 L 24.140625 -180.078125 L 10.21875 -180.359375 L 10.21875 -190.296875 L 65.046875 -189.734375 L 106.515625 -193.140625 C 124.691406 -193.140625 138.609375 -189.207031 148.265625 -181.34375 C 157.921875 -173.488281 162.75 -163.125 162.75 -150.25 C 162.75 -138.132812 158.675781 -127.671875 150.53125 -118.859375 C 142.394531 -110.054688 130.46875 -103.003906 114.75 -97.703125 Z M 112.1875 -139.453125 C 112.1875 -152.898438 108.726562 -163.078125 101.8125 -169.984375 C 94.90625 -176.898438 84.734375 -180.359375 71.296875 -180.359375 L 71.296875 -98.5625 C 85.117188 -99.507812 95.390625 -103.34375 102.109375 -110.0625 C 108.828125 -116.78125 112.1875 -126.578125 112.1875 -139.453125 Z M 71.296875 -9.9375 C 90.609375 -9.9375 104.617188 -12.96875 113.328125 -19.03125 C 122.035156 -25.09375 126.390625 -34.75 126.390625 -48 C 126.390625 -61.257812 122.457031 -71.296875 114.59375 -78.109375 C 106.738281 -84.921875 95.144531 -88.328125 79.8125 -88.328125 L 71.296875 -88.328125 Z M 71.296875 -9.9375 "/></g></g></g><g fill="#000000" fill-opacity="1"><g transform="translate(683.217659, 235.587916)"><g/></g></g><g fill="#000000" fill-opacity="1"><g transform="translate(724.505112, 235.587916)"><g/></g></g><g fill="#000000" fill-opacity="1"><g transform="translate(765.799688, 235.587916)"><g><path d="M 83.75 0 L 64.65625 0 C 65.175781 -0.644531 65.5 -1.488281 65.625 -2.53125 C 65.757812 -3.570312 65.757812 -4.546875 65.625 -5.453125 C 65.113281 -15.191406 64.5 -23.988281 63.78125 -31.84375 C 63.0625 -39.695312 62.28125 -47.613281 61.4375 -55.59375 C 60.59375 -63.582031 59.585938 -72.578125 58.421875 -82.578125 C 56.347656 -74.648438 54.628906 -67.734375 53.265625 -61.828125 C 51.898438 -55.921875 50.796875 -50.566406 49.953125 -45.765625 C 49.109375 -40.960938 48.234375 -36.289062 47.328125 -31.75 L 40.890625 -31.75 C 39.859375 -36.8125 38.59375 -42.457031 37.09375 -48.6875 C 35.601562 -54.914062 34.109375 -61.046875 32.609375 -67.078125 C 31.117188 -73.117188 29.789062 -78.285156 28.625 -82.578125 C 27.582031 -72.578125 26.609375 -63.582031 25.703125 -55.59375 C 24.796875 -47.613281 24.015625 -39.695312 23.359375 -31.84375 C 22.710938 -23.988281 22.066406 -15.191406 21.421875 -5.453125 C 21.296875 -4.546875 21.234375 -3.570312 21.234375 -2.53125 C 21.234375 -1.488281 21.488281 -0.644531 22 0 L 3.3125 0 C 5.519531 -15.0625 7.597656 -29.894531 9.546875 -44.5 C 11.492188 -59.101562 13.242188 -73.023438 14.796875 -86.265625 C 16.359375 -99.515625 17.691406 -111.625 18.796875 -122.59375 C 19.898438 -133.5625 20.773438 -143.007812 21.421875 -150.9375 C 21.554688 -151.445312 21.65625 -152.222656 21.71875 -153.265625 C 21.78125 -154.304688 21.679688 -155.148438 21.421875 -155.796875 C 21.804688 -155.796875 22.875 -155.796875 24.625 -155.796875 C 26.382812 -155.796875 28.332031 -155.796875 30.46875 -155.796875 C 32.613281 -155.796875 34.53125 -155.796875 36.21875 -155.796875 C 37.90625 -155.796875 38.878906 -155.796875 39.140625 -155.796875 L 39.34375 -155.796875 C 39.082031 -155.148438 38.914062 -154.304688 38.84375 -153.265625 C 38.78125 -152.222656 38.75 -151.445312 38.75 -150.9375 C 38.882812 -148.851562 39.082031 -145.410156 39.34375 -140.609375 C 39.601562 -135.804688 39.894531 -130.382812 40.21875 -124.34375 C 40.539062 -118.3125 40.894531 -112.335938 41.28125 -106.421875 C 41.675781 -100.515625 42.066406 -95.289062 42.453125 -90.75 C 42.847656 -86.207031 43.171875 -83.023438 43.421875 -81.203125 C 43.679688 -83.023438 44.003906 -86.207031 44.390625 -90.75 C 44.785156 -95.289062 45.175781 -100.546875 45.5625 -106.515625 C 45.957031 -112.492188 46.347656 -118.5 46.734375 -124.53125 C 47.128906 -130.570312 47.457031 -135.960938 47.71875 -140.703125 C 47.976562 -145.441406 48.171875 -148.851562 48.296875 -150.9375 C 48.296875 -151.445312 48.328125 -152.222656 48.390625 -153.265625 C 48.460938 -154.304688 48.367188 -155.148438 48.109375 -155.796875 C 48.367188 -155.796875 49.304688 -155.796875 50.921875 -155.796875 C 52.546875 -155.796875 54.425781 -155.796875 56.5625 -155.796875 C 58.707031 -155.796875 60.65625 -155.796875 62.40625 -155.796875 C 64.164062 -155.796875 65.238281 -155.796875 65.625 -155.796875 C 65.5 -155.148438 65.4375 -154.304688 65.4375 -153.265625 C 65.4375 -152.222656 65.5 -151.445312 65.625 -150.9375 C 66.28125 -143.007812 67.160156 -133.5625 68.265625 -122.59375 C 69.367188 -111.625 70.695312 -99.515625 72.25 -86.265625 C 73.8125 -73.023438 75.53125 -59.101562 77.40625 -44.5 C 79.289062 -29.894531 81.40625 -15.0625 83.75 0 Z M 83.75 0 "/></g></g></g><g fill="#000000" fill-opacity="1"><g transform="translate(853.04866, 235.587916)"><g><path d="M 56.859375 -18.3125 C 59.066406 -18.3125 61.207031 -18.503906 63.28125 -18.890625 C 65.363281 -19.273438 66.988281 -19.597656 68.15625 -19.859375 L 68.15625 -9.15625 C 68.15625 -7.207031 68.15625 -5.222656 68.15625 -3.203125 C 68.15625 -1.191406 68.15625 0.394531 68.15625 1.5625 C 66.988281 1.300781 65.363281 0.972656 63.28125 0.578125 C 61.207031 0.191406 59.066406 0 56.859375 0 L 10.90625 0 C 10.257812 0 9.675781 0 9.15625 0 C 8.632812 0 8.242188 0 7.984375 0 L 7.40625 0 C 7.789062 -1.039062 8.078125 -2.660156 8.265625 -4.859375 C 8.460938 -7.066406 8.5625 -9.082031 8.5625 -10.90625 C 8.5625 -11.550781 8.59375 -14.40625 8.65625 -19.46875 C 8.726562 -24.53125 8.765625 -32.675781 8.765625 -43.90625 C 8.765625 -55.144531 8.765625 -70.175781 8.765625 -89 C 8.765625 -103.800781 8.726562 -115.972656 8.65625 -125.515625 C 8.59375 -135.054688 8.5625 -141.453125 8.5625 -144.703125 C 8.5625 -146.910156 8.367188 -149.050781 7.984375 -151.125 C 7.597656 -153.195312 7.207031 -154.753906 6.8125 -155.796875 L 17.53125 -155.796875 C 19.476562 -155.796875 21.457031 -155.796875 23.46875 -155.796875 C 25.476562 -155.796875 27.066406 -155.796875 28.234375 -155.796875 L 56.671875 -155.796875 C 58.878906 -155.796875 61.019531 -155.988281 63.09375 -156.375 C 65.175781 -156.769531 66.734375 -157.097656 67.765625 -157.359375 L 67.765625 -146.640625 C 67.765625 -144.691406 67.765625 -142.710938 67.765625 -140.703125 C 67.765625 -138.691406 67.765625 -137.101562 67.765625 -135.9375 C 66.734375 -136.320312 65.175781 -136.707031 63.09375 -137.09375 C 61.019531 -137.488281 58.878906 -137.6875 56.671875 -137.6875 L 26.6875 -137.6875 C 26.550781 -135.738281 26.453125 -132.363281 26.390625 -127.5625 C 26.328125 -122.757812 26.296875 -116.984375 26.296875 -110.234375 C 26.296875 -103.867188 26.328125 -99.289062 26.390625 -96.5 C 26.453125 -93.707031 26.515625 -91.726562 26.578125 -90.5625 C 26.648438 -89.394531 26.6875 -88.03125 26.6875 -86.46875 L 39.53125 -86.46875 C 41.738281 -86.46875 43.847656 -86.660156 45.859375 -87.046875 C 47.867188 -87.441406 49.460938 -87.832031 50.640625 -88.21875 L 50.640625 -77.515625 C 50.640625 -75.566406 50.640625 -73.582031 50.640625 -71.5625 C 50.640625 -69.550781 50.640625 -67.960938 50.640625 -66.796875 C 49.460938 -67.054688 47.867188 -67.378906 45.859375 -67.765625 C 43.847656 -68.160156 41.738281 -68.359375 39.53125 -68.359375 L 26.6875 -68.359375 C 26.425781 -62.640625 26.257812 -56.628906 26.1875 -50.328125 C 26.125 -44.035156 26.15625 -38.097656 26.28125 -32.515625 C 26.414062 -26.941406 26.550781 -22.207031 26.6875 -18.3125 Z M 56.859375 -18.3125 "/></g></g></g><g fill="#000000" fill-opacity="1"><g transform="translate(924.71744, 235.587916)"><g><path d="M 43.8125 -155.796875 C 52.644531 -155.796875 59.59375 -153.425781 64.65625 -148.6875 C 69.71875 -143.945312 73.351562 -135.960938 75.5625 -124.734375 C 77.769531 -113.503906 78.875 -98.148438 78.875 -78.671875 C 78.875 -59.203125 77.769531 -43.722656 75.5625 -32.234375 C 73.351562 -20.742188 69.71875 -12.5 64.65625 -7.5 C 59.59375 -2.5 52.644531 0 43.8125 0 L 23.765625 0 C 22.847656 0 21.804688 0 20.640625 0 C 19.472656 0 18.238281 0 16.9375 0 L 6.8125 0 C 7.207031 -1.039062 7.46875 -2.628906 7.59375 -4.765625 C 7.726562 -6.910156 7.796875 -8.957031 7.796875 -10.90625 C 7.796875 -11.289062 7.859375 -12.390625 7.984375 -14.203125 C 8.109375 -16.023438 8.203125 -19.304688 8.265625 -24.046875 C 8.335938 -28.785156 8.4375 -35.664062 8.5625 -44.6875 C 8.695312 -53.71875 8.765625 -65.695312 8.765625 -80.625 C 8.765625 -99.96875 8.664062 -115.613281 8.46875 -127.5625 C 8.269531 -139.507812 8.046875 -147.363281 7.796875 -151.125 C 7.796875 -152.03125 7.695312 -152.90625 7.5 -153.75 C 7.300781 -154.59375 7.070312 -155.273438 6.8125 -155.796875 L 16.9375 -155.796875 C 18.625 -155.796875 20.050781 -155.796875 21.21875 -155.796875 C 22.394531 -155.796875 23.242188 -155.796875 23.765625 -155.796875 Z M 43.8125 -16.171875 C 49.65625 -16.171875 53.90625 -18.632812 56.5625 -23.5625 C 59.226562 -28.5 60.914062 -35.640625 61.625 -44.984375 C 62.34375 -54.335938 62.703125 -65.566406 62.703125 -78.671875 C 62.703125 -91.785156 62.34375 -102.882812 61.625 -111.96875 C 60.914062 -121.0625 59.226562 -127.976562 56.5625 -132.71875 C 53.90625 -137.457031 49.65625 -139.828125 43.8125 -139.828125 L 25.515625 -139.828125 C 25.773438 -133.722656 26.035156 -125.738281 26.296875 -115.875 C 26.554688 -106.007812 26.6875 -94.257812 26.6875 -80.625 C 26.6875 -73.351562 26.617188 -65.789062 26.484375 -57.9375 C 26.359375 -50.082031 26.257812 -42.550781 26.1875 -35.34375 C 26.125 -28.132812 26.03125 -21.742188 25.90625 -16.171875 Z M 43.8125 -16.171875 "/></g></g></g><g fill="#000000" fill-opacity="1"><g transform="translate(1007.097615, 235.587916)"><g><path d="M 26.6875 -144.703125 C 26.550781 -141.847656 26.351562 -135.09375 26.09375 -124.4375 C 25.832031 -113.789062 25.703125 -99.1875 25.703125 -80.625 C 25.703125 -72.1875 25.765625 -63.875 25.890625 -55.6875 C 26.023438 -47.507812 26.125 -40.078125 26.1875 -33.390625 C 26.257812 -26.710938 26.359375 -21.359375 26.484375 -17.328125 C 26.617188 -13.304688 26.6875 -11.164062 26.6875 -10.90625 C 26.6875 -8.957031 26.75 -6.910156 26.875 -4.765625 C 27 -2.628906 27.257812 -1.039062 27.65625 0 L 17.53125 0 C 15.445312 0 13.492188 0 11.671875 0 C 9.859375 0 8.4375 0 7.40625 0 C 7.789062 -1.039062 8.078125 -2.628906 8.265625 -4.765625 C 8.460938 -6.910156 8.5625 -8.957031 8.5625 -10.90625 C 8.5625 -11.289062 8.625 -12.390625 8.75 -14.203125 C 8.882812 -16.023438 8.984375 -19.304688 9.046875 -24.046875 C 9.117188 -28.785156 9.21875 -35.664062 9.34375 -44.6875 C 9.476562 -53.71875 9.546875 -65.695312 9.546875 -80.625 C 9.546875 -99.96875 9.445312 -114.863281 9.25 -125.3125 C 9.050781 -135.769531 8.820312 -142.234375 8.5625 -144.703125 C 8.5625 -146.910156 8.367188 -149.050781 7.984375 -151.125 C 7.597656 -153.195312 7.207031 -154.753906 6.8125 -155.796875 L 17.53125 -155.796875 C 19.476562 -155.796875 21.457031 -155.796875 23.46875 -155.796875 C 25.476562 -155.796875 27.066406 -155.796875 28.234375 -155.796875 C 27.972656 -154.753906 27.648438 -153.195312 27.265625 -151.125 C 26.878906 -149.050781 26.6875 -146.910156 26.6875 -144.703125 Z M 26.6875 -144.703125 "/></g></g></g><g fill="#000000" fill-opacity="1"><g transform="translate(1042.152994, 235.587916)"><g><path d="M 76.140625 0 L 57.640625 0 C 57.898438 -0.644531 57.960938 -1.488281 57.828125 -2.53125 C 57.703125 -3.570312 57.578125 -4.351562 57.453125 -4.875 C 56.546875 -11.625 55.34375 -19.640625 53.84375 -28.921875 C 52.351562 -38.203125 50.695312 -48.363281 48.875 -59.40625 C 45.632812 -59.144531 42.457031 -59.046875 39.34375 -59.109375 C 36.226562 -59.171875 33.304688 -59.269531 30.578125 -59.40625 C 28.753906 -48.363281 27.097656 -38.203125 25.609375 -28.921875 C 24.117188 -19.640625 22.851562 -11.625 21.8125 -4.875 C 21.6875 -4.351562 21.585938 -3.570312 21.515625 -2.53125 C 21.453125 -1.488281 21.550781 -0.644531 21.8125 0 L 3.3125 0 C 3.695312 -0.382812 3.953125 -0.867188 4.078125 -1.453125 C 4.210938 -2.046875 4.347656 -2.535156 4.484375 -2.921875 C 7.984375 -18.503906 11.320312 -34.601562 14.5 -51.21875 C 17.6875 -67.832031 20.640625 -84.546875 23.359375 -101.359375 C 26.085938 -118.179688 28.492188 -134.507812 30.578125 -150.34375 C 30.703125 -151.25 30.828125 -152.253906 30.953125 -153.359375 C 31.085938 -154.460938 30.894531 -155.273438 30.375 -155.796875 L 30.765625 -155.796875 C 31.546875 -155.796875 33.003906 -155.796875 35.140625 -155.796875 C 37.285156 -155.796875 39.625 -155.796875 42.15625 -155.796875 C 44.695312 -155.796875 46.875 -155.796875 48.6875 -155.796875 L 49.078125 -155.796875 C 48.554688 -155.273438 48.359375 -154.460938 48.484375 -153.359375 C 48.617188 -152.253906 48.75 -151.25 48.875 -150.34375 C 50.957031 -134.507812 53.359375 -118.179688 56.078125 -101.359375 C 58.804688 -84.546875 61.757812 -67.832031 64.9375 -51.21875 C 68.125 -34.601562 71.472656 -18.503906 74.984375 -2.921875 C 74.984375 -1.753906 75.367188 -0.78125 76.140625 0 Z M 33.296875 -75.5625 C 35.503906 -75.4375 37.644531 -75.375 39.71875 -75.375 C 41.800781 -75.375 43.882812 -75.5 45.96875 -75.75 C 45.050781 -81.332031 44.070312 -87.078125 43.03125 -92.984375 C 42 -98.898438 40.898438 -104.84375 39.734375 -110.8125 C 38.554688 -104.707031 37.445312 -98.734375 36.40625 -92.890625 C 35.375 -87.046875 34.335938 -81.269531 33.296875 -75.5625 Z M 33.296875 -75.5625 "/></g></g></g><g clip-path="url(#2d3bcde060)"><g transform="matrix(1, 0, 0, 1, 591, 294)"><g clip-path="url(#ae59f43b21)"><g clip-path="url(#e0b8316dcb)"><path fill="#000000" d="M 0.484375 0.113281 L 434 0.113281 L 434 47.101562 L 0.484375 47.101562 Z M 0.484375 0.113281 " fill-opacity="1" fill-rule="nonzero"/></g></g></g></g><g clip-path="url(#17eea198ff)"><g transform="matrix(1, 0, 0, 1, 583, 294)"><g clip-path="url(#6677906213)"><g clip-path="url(#8c8084a0ec)"><path fill="#000000" d="M 0.171875 0.113281 L 10.132812 0.113281 L 10.132812 47.085938 L 0.171875 47.085938 Z M 0.171875 0.113281 " fill-opacity="1" fill-rule="nonzero"/></g></g></g></g><g clip-path="url(#c2c97cf93c)"><g transform="matrix(1, 0, 0, 1, 575, 295)"><g clip-path="url(#2c27a3ce00)"><g clip-path="url(#a0820127c8)"><path fill="#000000" d="M 0.308594 0.015625 L 10.273438 0.015625 L 10.273438 46.089844 L 0.308594 46.089844 Z M 0.308594 0.015625 " fill-opacity="1" fill-rule="nonzero"/></g></g></g></g><g clip-path="url(#5f351a89f7)"><g transform="matrix(1, 0, 0, 1, 569, 299)"><g clip-path="url(#73a2a9b98d)"><g clip-path="url(#40f0dc254c)"><path fill="#000000" d="M 0.0078125 0.664062 L 8.621094 0.664062 L 8.621094 42.113281 L 0.0078125 42.113281 Z M 0.0078125 0.664062 " fill-opacity="1" fill-rule="nonzero"/></g></g></g></g><g clip-path="url(#28b1768dfa)"><g clip-path="url(#c18451b2fd)"><g transform="matrix(1, 0, 0, 1, 935, 294)"><g clip-path="url(#a4f13e6c17)"><g clip-path="url(#f8ba6702c3)"><g clip-path="url(#c5cd80043a)"><path fill="#000000" d="M -1.863281 0.113281 L 201.136719 0.113281 L 201.136719 47.101562 L -1.863281 47.101562 Z M -1.863281 0.113281 " fill-opacity="1" fill-rule="nonzero"/></g></g></g></g></g></g><g fill="#000000" fill-opacity="1"><g transform="translate(768.809848, 280.762306)"><g><path d="M 2.765625 -29.0625 L 8.8125 -29.0625 L 8.8125 -18.171875 L 22.15625 -18.171875 L 22.15625 -29.0625 L 28.203125 -29.0625 L 28.203125 0 L 22.15625 0 L 22.15625 -12.75 L 8.8125 -12.75 L 8.8125 0 L 2.765625 0 Z M 2.765625 -29.0625 "/></g></g></g><g fill="#000000" fill-opacity="1"><g transform="translate(830.286419, 280.76402)"><g><path d="M 23.875 0 L 21.953125 -3.90625 L 7.875 -3.90625 L 6 0 L -0.234375 0 L 15.09375 -29.5625 L 30.453125 0 Z M 14.859375 -18.40625 L 10.484375 -9.359375 L 19.3125 -9.359375 Z M 14.859375 -18.40625 "/></g></g></g><g fill="#000000" fill-opacity="1"><g transform="translate(888.177032, 280.76235)"><g><path d="M 27.84375 -12.015625 L 36.109375 -29.0625 L 42.390625 -29.0625 L 27.609375 0.5 L 21.25 -11.46875 L 15.28125 0.5 L -0.234375 -29.0625 L 6.703125 -29.0625 L 15.515625 -12.015625 L 18.25 -17.28125 L 12.09375 -29.0625 L 19.03125 -29.0625 Z M 27.84375 -12.015625 "/></g></g></g><g fill="#000000" fill-opacity="1"><g transform="translate(955.384059, 280.76235)"><g><path d="M 23.875 0 L 21.953125 -3.90625 L 7.875 -3.90625 L 6 0 L -0.234375 0 L 15.09375 -29.5625 L 30.453125 0 Z M 14.859375 -18.40625 L 10.484375 -9.359375 L 19.3125 -9.359375 Z M 14.859375 -18.40625 "/></g></g></g><g fill="#000000" fill-opacity="1"><g transform="translate(1057.372342, 281.664006)"><g><path d="M 8.8125 -29.0625 L 8.8125 0 L 2.765625 0 L 2.765625 -29.0625 Z M 8.8125 -29.0625 "/></g></g></g><g fill="#000000" fill-opacity="1"><g transform="translate(1013.860609, 281.664006)"><g><path d="M 8.8125 -29.0625 L 8.8125 0 L 2.765625 0 L 2.765625 -29.0625 Z M 8.8125 -29.0625 "/></g></g></g><g fill="#000000" fill-opacity="1"><g transform="translate(281.101053, 206.804751)"><g><path d="M 0.375 -9.375 L 0.234375 -9.59375 C 0.421875 -10.300781 0.671875 -11.078125 0.984375 -11.921875 C 1.296875 -12.765625 1.617188 -13.550781 1.953125 -14.28125 L 4.09375 -14.28125 C 3.90625 -13.488281 3.722656 -12.644531 3.546875 -11.75 C 3.367188 -10.863281 3.226562 -10.070312 3.125 -9.375 Z M 0.375 -9.375 "/></g></g></g></svg>