<svg xmlns="http://www.w3.org/2000/svg" xmlns:xlink="http://www.w3.org/1999/xlink" width="2000" zoomAndPan="magnify" viewBox="0 0 1500 374.999991" height="500" preserveAspectRatio="xMidYMid meet" version="1.0"><defs><g/><clipPath id="deff5c65ea"><path d="M 591.484375 294.113281 L 1025.042969 294.113281 L 1025.042969 341.101562 L 591.484375 341.101562 Z M 591.484375 294.113281 " clip-rule="nonzero"/></clipPath><clipPath id="1b67bb9b24"><path d="M 0.484375 0.113281 L 434 0.113281 L 434 47.101562 L 0.484375 47.101562 Z M 0.484375 0.113281 " clip-rule="nonzero"/></clipPath><clipPath id="cf7b4700ef"><rect x="0" width="435" y="0" height="48"/></clipPath><clipPath id="66c99ec51c"><path d="M 583.171875 294.113281 L 593.132812 294.113281 L 593.132812 341.101562 L 583.171875 341.101562 Z M 583.171875 294.113281 " clip-rule="nonzero"/></clipPath><clipPath id="9860ed3a45"><path d="M 0.171875 0.113281 L 10.132812 0.113281 L 10.132812 47.101562 L 0.171875 47.101562 Z M 0.171875 0.113281 " clip-rule="nonzero"/></clipPath><clipPath id="9e77921ab2"><rect x="0" width="11" y="0" height="48"/></clipPath><clipPath id="a1e29d0b07"><path d="M 575.308594 295.015625 L 585.273438 295.015625 L 585.273438 341.101562 L 575.308594 341.101562 Z M 575.308594 295.015625 " clip-rule="nonzero"/></clipPath><clipPath id="099ab02585"><path d="M 0.308594 0.015625 L 10.273438 0.015625 L 10.273438 46.101562 L 0.308594 46.101562 Z M 0.308594 0.015625 " clip-rule="nonzero"/></clipPath><clipPath id="cb7eef5d41"><rect x="0" width="11" y="0" height="47"/></clipPath><clipPath id="68fb7ba175"><path d="M 569.007812 299.664062 L 577.621094 299.664062 L 577.621094 341.101562 L 569.007812 341.101562 Z M 569.007812 299.664062 " clip-rule="nonzero"/></clipPath><clipPath id="7fbb63881b"><path d="M 0.0078125 0.664062 L 8.621094 0.664062 L 8.621094 42.101562 L 0.0078125 42.101562 Z M 0.0078125 0.664062 " clip-rule="nonzero"/></clipPath><clipPath id="af9c20a7b7"><rect x="0" width="9" y="0" height="43"/></clipPath><clipPath id="6f088abf8a"><path d="M 935.523438 294.113281 L 1133.75 294.113281 L 1133.75 341.101562 L 935.523438 341.101562 Z M 935.523438 294.113281 " clip-rule="nonzero"/></clipPath><clipPath id="d73dfe7d1e"><path d="M 1088.726562 295.6875 L 1132.648438 315.988281 C 1133.261719 316.273438 1133.652344 316.886719 1133.652344 317.5625 C 1133.652344 318.238281 1133.261719 318.855469 1132.648438 319.136719 L 1088.726562 339.441406 C 1086.484375 340.476562 1084.042969 341.015625 1081.574219 341.015625 L 987.617188 341.015625 C 985.144531 341.015625 982.703125 340.476562 980.460938 339.441406 L 936.542969 319.136719 C 935.925781 318.855469 935.535156 318.238281 935.535156 317.5625 C 935.535156 316.886719 935.925781 316.273438 936.542969 315.988281 L 980.460938 295.6875 C 982.703125 294.648438 985.144531 294.113281 987.617188 294.113281 L 1081.574219 294.113281 C 1084.042969 294.113281 1086.484375 294.648438 1088.726562 295.6875 Z M 1088.726562 295.6875 " clip-rule="nonzero"/></clipPath><clipPath id="2632f2ba19"><path d="M 0.523438 0.113281 L 198.75 0.113281 L 198.75 47.039062 L 0.523438 47.039062 Z M 0.523438 0.113281 " clip-rule="nonzero"/></clipPath><clipPath id="09915d13a4"><path d="M 153.726562 1.6875 L 197.648438 21.988281 C 198.261719 22.273438 198.652344 22.886719 198.652344 23.5625 C 198.652344 24.238281 198.261719 24.855469 197.648438 25.136719 L 153.726562 45.441406 C 151.484375 46.476562 149.042969 47.015625 146.574219 47.015625 L 52.617188 47.015625 C 50.144531 47.015625 47.703125 46.476562 45.460938 45.441406 L 1.542969 25.136719 C 0.925781 24.855469 0.535156 24.238281 0.535156 23.5625 C 0.535156 22.886719 0.925781 22.273438 1.542969 21.988281 L 45.460938 1.6875 C 47.703125 0.648438 50.144531 0.113281 52.617188 0.113281 L 146.574219 0.113281 C 149.042969 0.113281 151.484375 0.648438 153.726562 1.6875 Z M 153.726562 1.6875 " clip-rule="nonzero"/></clipPath><clipPath id="84c118a399"><rect x="0" width="199" y="0" height="48"/></clipPath><clipPath id="0b76fd8983"><path d="M 750 37.5 L 1065.621094 37.5 L 1065.621094 84.488281 L 750 84.488281 Z M 750 37.5 " clip-rule="nonzero"/></clipPath><clipPath id="ce29035b98"><path d="M 0 0.5 L 315.621094 0.5 L 315.621094 47.488281 L 0 47.488281 Z M 0 0.5 " clip-rule="nonzero"/></clipPath><clipPath id="2588ea0d21"><rect x="0" width="316" y="0" height="48"/></clipPath><clipPath id="5b29741f2f"><path d="M 935.523438 37.5 L 1133.75 37.5 L 1133.75 84.488281 L 935.523438 84.488281 Z M 935.523438 37.5 " clip-rule="nonzero"/></clipPath><clipPath id="766b167db9"><path d="M 1088.726562 39.074219 L 1132.648438 59.378906 C 1133.261719 59.660156 1133.652344 60.277344 1133.652344 60.953125 C 1133.652344 61.628906 1133.261719 62.242188 1132.648438 62.523438 L 1088.726562 82.828125 C 1086.484375 83.867188 1084.042969 84.402344 1081.574219 84.402344 L 987.617188 84.402344 C 985.144531 84.402344 982.703125 83.867188 980.460938 82.828125 L 936.542969 62.523438 C 935.925781 62.242188 935.535156 61.628906 935.535156 60.953125 C 935.535156 60.277344 935.925781 59.660156 936.542969 59.378906 L 980.460938 39.074219 C 982.703125 38.035156 985.144531 37.5 987.617188 37.5 L 1081.574219 37.5 C 1084.042969 37.5 1086.484375 38.035156 1088.726562 39.074219 Z M 1088.726562 39.074219 " clip-rule="nonzero"/></clipPath><clipPath id="2b73635494"><path d="M 0.523438 0.5 L 198.75 0.5 L 198.75 47.480469 L 0.523438 47.480469 Z M 0.523438 0.5 " clip-rule="nonzero"/></clipPath><clipPath id="61a094084b"><path d="M 153.726562 2.074219 L 197.648438 22.378906 C 198.261719 22.660156 198.652344 23.277344 198.652344 23.953125 C 198.652344 24.628906 198.261719 25.242188 197.648438 25.523438 L 153.726562 45.828125 C 151.484375 46.867188 149.042969 47.402344 146.574219 47.402344 L 52.617188 47.402344 C 50.144531 47.402344 47.703125 46.867188 45.460938 45.828125 L 1.542969 25.523438 C 0.925781 25.242188 0.535156 24.628906 0.535156 23.953125 C 0.535156 23.277344 0.925781 22.660156 1.542969 22.378906 L 45.460938 2.074219 C 47.703125 1.035156 50.144531 0.5 52.617188 0.5 L 146.574219 0.5 C 149.042969 0.5 151.484375 1.035156 153.726562 2.074219 Z M 153.726562 2.074219 " clip-rule="nonzero"/></clipPath><clipPath id="15065e91d4"><rect x="0" width="199" y="0" height="48"/></clipPath><clipPath id="3aa2550fb4"><path d="M 569.007812 37.5 L 750.945312 37.5 L 750.945312 68.648438 L 569.007812 68.648438 Z M 569.007812 37.5 " clip-rule="nonzero"/></clipPath><clipPath id="39a9850f7b"><path d="M 0.0078125 0.5 L 181.945312 0.5 L 181.945312 31.648438 L 0.0078125 31.648438 Z M 0.0078125 0.5 " clip-rule="nonzero"/></clipPath><clipPath id="99063cd6a5"><rect x="0" width="182" y="0" height="32"/></clipPath><clipPath id="7b6504125d"><path d="M 721 37 L 770 37 L 770 85 L 721 85 Z M 721 37 " clip-rule="nonzero"/></clipPath><clipPath id="21894ff238"><path d="M 740.644531 37.503906 L 769.425781 59.910156 L 750.292969 84.492188 L 721.507812 62.082031 Z M 740.644531 37.503906 " clip-rule="nonzero"/></clipPath><clipPath id="b61ee602d7"><path d="M 0.441406 0.441406 L 48.441406 0.441406 L 48.441406 47.71875 L 0.441406 47.71875 Z M 0.441406 0.441406 " clip-rule="nonzero"/></clipPath><clipPath id="fae3f7d592"><path d="M 19.644531 0.503906 L 48.425781 22.910156 L 29.292969 47.492188 L 0.507812 25.082031 Z M 19.644531 0.503906 " clip-rule="nonzero"/></clipPath><clipPath id="bf207ac986"><rect x="0" width="49" y="0" height="48"/></clipPath><clipPath id="e3450ca1a9"><path d="M 407.675781 37.378906 L 575.34375 37.378906 L 575.34375 68.652344 L 407.675781 68.652344 Z M 407.675781 37.378906 " clip-rule="nonzero"/></clipPath><clipPath id="0e99a14e06"><path d="M 407.675781 68.652344 C 407.675781 60.445312 425.554688 52.425781 456.765625 46.625 C 487.980469 40.824219 531.140625 37.5 575.28125 37.5 L 575.28125 68.652344 Z M 407.675781 68.652344 " clip-rule="nonzero"/></clipPath><clipPath id="f2853cdb3f"><path d="M 0.675781 0.441406 L 168.34375 0.441406 L 168.34375 31.652344 L 0.675781 31.652344 Z M 0.675781 0.441406 " clip-rule="nonzero"/></clipPath><clipPath id="806b33aa07"><path d="M 0.675781 31.652344 C 0.675781 23.445312 18.554688 15.425781 49.765625 9.625 C 80.980469 3.824219 124.140625 0.5 168.28125 0.5 L 168.28125 31.652344 Z M 0.675781 31.652344 " clip-rule="nonzero"/></clipPath><clipPath id="ce4fa71ba0"><rect x="0" width="169" y="0" height="32"/></clipPath></defs><g fill="#000000" fill-opacity="1"><g transform="translate(373.494838, 272.554753)"><g><path d="M 75.546875 18.46875 C 98.648438 21.6875 126.769531 23.296875 159.90625 23.296875 C 178.65625 23.296875 195.414062 22.726562 210.1875 21.59375 L 195.40625 68.734375 C 178.9375 67.597656 156.546875 63.003906 128.234375 54.953125 C 99.929688 46.910156 76.972656 38.628906 59.359375 30.109375 L 59.359375 12.5 L 84.640625 3.40625 C 60.785156 0.757812 41.847656 -8.5625 27.828125 -24.5625 C 13.816406 -40.5625 6.8125 -62.289062 6.8125 -89.75 C 6.8125 -102.4375 9.175781 -115.691406 13.90625 -129.515625 C 18.644531 -143.335938 25.367188 -155.550781 34.078125 -166.15625 C 42.984375 -174.675781 53.257812 -181.539062 64.90625 -186.75 C 76.550781 -191.957031 88.90625 -194.5625 101.96875 -194.5625 C 120.519531 -194.5625 136.753906 -190.960938 150.671875 -183.765625 C 164.597656 -176.566406 175.394531 -165.960938 183.0625 -151.953125 C 190.726562 -137.941406 194.5625 -120.804688 194.5625 -100.546875 C 194.5625 -87.671875 192.285156 -74.367188 187.734375 -60.640625 C 183.191406 -46.910156 176.566406 -34.742188 167.859375 -24.140625 C 156.117188 -13.160156 142.863281 -5.207031 128.09375 -0.28125 Z M 57.375 -109.640625 C 57.375 -87.671875 60.210938 -69.960938 65.890625 -56.515625 C 71.578125 -43.078125 80.191406 -33.1875 91.734375 -26.84375 C 103.285156 -20.5 118.25 -16.851562 136.625 -15.90625 C 138.894531 -25.375 140.738281 -36.5 142.15625 -49.28125 C 143.570312 -62.0625 144.28125 -72.523438 144.28125 -80.671875 C 144.28125 -102.816406 141.394531 -120.660156 135.625 -134.203125 C 129.851562 -147.742188 121.09375 -157.734375 109.34375 -164.171875 C 97.601562 -170.609375 82.644531 -174.207031 64.46875 -174.96875 C 62.382812 -165.113281 60.679688 -153.65625 59.359375 -140.59375 C 58.035156 -127.53125 57.375 -117.210938 57.375 -109.640625 Z M 57.375 -109.640625 "/></g></g></g><g fill="#000000" fill-opacity="1"><g transform="translate(574.868175, 272.554753)"><g><path d="M 129.796875 -98.5625 C 139.835938 -98.5625 148.40625 -96.523438 155.5 -92.453125 C 162.601562 -88.378906 167.953125 -83.125 171.546875 -76.6875 C 175.148438 -70.25 176.953125 -63.429688 176.953125 -56.234375 C 176.953125 -38.628906 169.425781 -24.851562 154.375 -14.90625 C 139.320312 -4.96875 117.304688 0 88.328125 0 L 10.21875 0 L 10.21875 -9.9375 L 24.140625 -10.21875 L 24.140625 -180.078125 L 10.21875 -180.359375 L 10.21875 -190.296875 L 65.046875 -189.734375 L 106.515625 -193.140625 C 124.691406 -193.140625 138.609375 -189.207031 148.265625 -181.34375 C 157.921875 -173.488281 162.75 -163.125 162.75 -150.25 C 162.75 -138.132812 158.675781 -127.671875 150.53125 -118.859375 C 142.394531 -110.054688 130.46875 -103.003906 114.75 -97.703125 Z M 112.1875 -139.453125 C 112.1875 -152.898438 108.726562 -163.078125 101.8125 -169.984375 C 94.90625 -176.898438 84.734375 -180.359375 71.296875 -180.359375 L 71.296875 -98.5625 C 85.117188 -99.507812 95.390625 -103.34375 102.109375 -110.0625 C 108.828125 -116.78125 112.1875 -126.578125 112.1875 -139.453125 Z M 71.296875 -9.9375 C 90.609375 -9.9375 104.617188 -12.96875 113.328125 -19.03125 C 122.035156 -25.09375 126.390625 -34.75 126.390625 -48 C 126.390625 -61.257812 122.457031 -71.296875 114.59375 -78.109375 C 106.738281 -84.921875 95.144531 -88.328125 79.8125 -88.328125 L 71.296875 -88.328125 Z M 71.296875 -9.9375 "/></g></g></g><g fill="#000000" fill-opacity="1"><g transform="translate(683.324267, 271.642365)"><g/></g></g><g fill="#000000" fill-opacity="1"><g transform="translate(726.095195, 271.642365)"><g/></g></g><g fill="#000000" fill-opacity="1"><g transform="translate(768.871136, 271.642365)"><g><path d="M 86.75 0 L 66.984375 0 C 67.515625 -0.675781 67.847656 -1.550781 67.984375 -2.625 C 68.117188 -3.695312 68.117188 -4.707031 67.984375 -5.65625 C 67.453125 -15.738281 66.816406 -24.847656 66.078125 -32.984375 C 65.335938 -41.117188 64.53125 -49.320312 63.65625 -57.59375 C 62.78125 -65.863281 61.738281 -75.179688 60.53125 -85.546875 C 58.375 -77.335938 56.585938 -70.171875 55.171875 -64.046875 C 53.765625 -57.929688 52.625 -52.382812 51.75 -47.40625 C 50.875 -42.4375 49.96875 -37.597656 49.03125 -32.890625 L 42.375 -32.890625 C 41.289062 -38.128906 39.972656 -43.976562 38.421875 -50.4375 C 36.878906 -56.894531 35.332031 -63.25 33.78125 -69.5 C 32.238281 -75.757812 30.863281 -81.109375 29.65625 -85.546875 C 28.582031 -75.179688 27.570312 -65.863281 26.625 -57.59375 C 25.6875 -49.320312 24.878906 -41.117188 24.203125 -32.984375 C 23.535156 -24.847656 22.863281 -15.738281 22.1875 -5.65625 C 22.050781 -4.707031 21.984375 -3.695312 21.984375 -2.625 C 21.984375 -1.550781 22.253906 -0.675781 22.796875 0 L 3.4375 0 C 5.71875 -15.601562 7.863281 -30.96875 9.875 -46.09375 C 11.894531 -61.226562 13.710938 -75.65625 15.328125 -89.375 C 16.941406 -103.09375 18.320312 -115.632812 19.46875 -127 C 20.613281 -138.363281 21.519531 -148.148438 22.1875 -156.359375 C 22.320312 -156.890625 22.421875 -157.691406 22.484375 -158.765625 C 22.554688 -159.847656 22.457031 -160.726562 22.1875 -161.40625 C 22.59375 -161.40625 23.703125 -161.40625 25.515625 -161.40625 C 27.335938 -161.40625 29.359375 -161.40625 31.578125 -161.40625 C 33.796875 -161.40625 35.773438 -161.40625 37.515625 -161.40625 C 39.265625 -161.40625 40.273438 -161.40625 40.546875 -161.40625 L 40.75 -161.40625 C 40.476562 -160.726562 40.304688 -159.847656 40.234375 -158.765625 C 40.171875 -157.691406 40.140625 -156.890625 40.140625 -156.359375 C 40.273438 -154.203125 40.476562 -150.632812 40.75 -145.65625 C 41.019531 -140.6875 41.320312 -135.070312 41.65625 -128.8125 C 42 -122.5625 42.367188 -116.375 42.765625 -110.25 C 43.171875 -104.132812 43.578125 -98.722656 43.984375 -94.015625 C 44.390625 -89.304688 44.722656 -86.007812 44.984375 -84.125 C 45.253906 -86.007812 45.59375 -89.304688 46 -94.015625 C 46.40625 -98.722656 46.804688 -104.171875 47.203125 -110.359375 C 47.609375 -116.546875 48.015625 -122.765625 48.421875 -129.015625 C 48.828125 -135.273438 49.160156 -140.859375 49.421875 -145.765625 C 49.691406 -150.671875 49.894531 -154.203125 50.03125 -156.359375 C 50.03125 -156.890625 50.0625 -157.691406 50.125 -158.765625 C 50.195312 -159.847656 50.097656 -160.726562 49.828125 -161.40625 C 50.097656 -161.40625 51.070312 -161.40625 52.75 -161.40625 C 54.4375 -161.40625 56.390625 -161.40625 58.609375 -161.40625 C 60.828125 -161.40625 62.84375 -161.40625 64.65625 -161.40625 C 66.476562 -161.40625 67.585938 -161.40625 67.984375 -161.40625 C 67.847656 -160.726562 67.78125 -159.847656 67.78125 -158.765625 C 67.78125 -157.691406 67.847656 -156.890625 67.984375 -156.359375 C 68.660156 -148.148438 69.566406 -138.363281 70.703125 -127 C 71.847656 -115.632812 73.226562 -103.09375 74.84375 -89.375 C 76.457031 -75.65625 78.238281 -61.226562 80.1875 -46.09375 C 82.144531 -30.96875 84.332031 -15.601562 86.75 0 Z M 86.75 0 "/></g></g></g><g fill="#000000" fill-opacity="1"><g transform="translate(859.254976, 271.642365)"><g><path d="M 58.90625 -18.96875 C 61.195312 -18.96875 63.414062 -19.164062 65.5625 -19.5625 C 67.71875 -19.96875 69.398438 -20.304688 70.609375 -20.578125 L 70.609375 -9.484375 C 70.609375 -7.460938 70.609375 -5.410156 70.609375 -3.328125 C 70.609375 -1.242188 70.609375 0.398438 70.609375 1.609375 C 69.398438 1.335938 67.71875 1 65.5625 0.59375 C 63.414062 0.195312 61.195312 0 58.90625 0 L 11.296875 0 C 10.628906 0 10.023438 0 9.484375 0 C 8.941406 0 8.535156 0 8.265625 0 L 7.671875 0 C 8.066406 -1.070312 8.363281 -2.75 8.5625 -5.03125 C 8.769531 -7.320312 8.875 -9.410156 8.875 -11.296875 C 8.875 -11.972656 8.90625 -14.929688 8.96875 -20.171875 C 9.039062 -25.421875 9.078125 -33.863281 9.078125 -45.5 C 9.078125 -57.132812 9.078125 -72.703125 9.078125 -92.203125 C 9.078125 -107.535156 9.039062 -120.144531 8.96875 -130.03125 C 8.90625 -139.914062 8.875 -146.539062 8.875 -149.90625 C 8.875 -152.1875 8.671875 -154.398438 8.265625 -156.546875 C 7.867188 -158.703125 7.46875 -160.320312 7.0625 -161.40625 L 18.15625 -161.40625 C 20.175781 -161.40625 22.226562 -161.40625 24.3125 -161.40625 C 26.394531 -161.40625 28.039062 -161.40625 29.25 -161.40625 L 58.703125 -161.40625 C 60.992188 -161.40625 63.210938 -161.601562 65.359375 -162 C 67.515625 -162.40625 69.128906 -162.742188 70.203125 -163.015625 L 70.203125 -151.921875 C 70.203125 -149.898438 70.203125 -147.847656 70.203125 -145.765625 C 70.203125 -143.679688 70.203125 -142.035156 70.203125 -140.828125 C 69.128906 -141.222656 67.515625 -141.625 65.359375 -142.03125 C 63.210938 -142.4375 60.992188 -142.640625 58.703125 -142.640625 L 27.640625 -142.640625 C 27.503906 -140.617188 27.398438 -137.117188 27.328125 -132.140625 C 27.265625 -127.171875 27.234375 -121.1875 27.234375 -114.1875 C 27.234375 -107.601562 27.265625 -102.863281 27.328125 -99.96875 C 27.398438 -97.070312 27.46875 -95.019531 27.53125 -93.8125 C 27.601562 -92.601562 27.640625 -91.191406 27.640625 -89.578125 L 40.953125 -89.578125 C 43.242188 -89.578125 45.429688 -89.773438 47.515625 -90.171875 C 49.597656 -90.578125 51.242188 -90.984375 52.453125 -91.390625 L 52.453125 -80.296875 C 52.453125 -78.273438 52.453125 -76.222656 52.453125 -74.140625 C 52.453125 -72.054688 52.453125 -70.410156 52.453125 -69.203125 C 51.242188 -69.472656 49.597656 -69.804688 47.515625 -70.203125 C 45.429688 -70.609375 43.242188 -70.8125 40.953125 -70.8125 L 27.640625 -70.8125 C 27.367188 -64.894531 27.195312 -58.675781 27.125 -52.15625 C 27.0625 -45.632812 27.097656 -39.476562 27.234375 -33.6875 C 27.367188 -27.90625 27.503906 -23 27.640625 -18.96875 Z M 58.90625 -18.96875 "/></g></g></g><g fill="#000000" fill-opacity="1"><g transform="translate(933.498826, 271.642365)"><g><path d="M 45.390625 -161.40625 C 54.535156 -161.40625 61.726562 -158.945312 66.96875 -154.03125 C 72.21875 -149.125 75.984375 -140.851562 78.265625 -129.21875 C 80.554688 -117.582031 81.703125 -101.675781 81.703125 -81.5 C 81.703125 -61.332031 80.554688 -45.296875 78.265625 -33.390625 C 75.984375 -21.484375 72.21875 -12.941406 66.96875 -7.765625 C 61.726562 -2.585938 54.535156 0 45.390625 0 L 24.609375 0 C 23.671875 0 22.59375 0 21.375 0 C 20.164062 0 18.890625 0 17.546875 0 L 7.0625 0 C 7.46875 -1.070312 7.734375 -2.71875 7.859375 -4.9375 C 7.992188 -7.15625 8.0625 -9.273438 8.0625 -11.296875 C 8.0625 -11.703125 8.128906 -12.84375 8.265625 -14.71875 C 8.398438 -16.601562 8.5 -20 8.5625 -24.90625 C 8.632812 -29.820312 8.738281 -36.953125 8.875 -46.296875 C 9.007812 -55.648438 9.078125 -68.0625 9.078125 -83.53125 C 9.078125 -103.5625 8.972656 -119.765625 8.765625 -132.140625 C 8.566406 -144.515625 8.332031 -152.65625 8.0625 -156.5625 C 8.0625 -157.5 7.960938 -158.40625 7.765625 -159.28125 C 7.566406 -160.15625 7.332031 -160.863281 7.0625 -161.40625 L 17.546875 -161.40625 C 19.296875 -161.40625 20.773438 -161.40625 21.984375 -161.40625 C 23.203125 -161.40625 24.078125 -161.40625 24.609375 -161.40625 Z M 45.390625 -16.75 C 51.441406 -16.75 55.847656 -19.300781 58.609375 -24.40625 C 61.367188 -29.519531 63.117188 -36.914062 63.859375 -46.59375 C 64.597656 -56.28125 64.96875 -67.914062 64.96875 -81.5 C 64.96875 -95.09375 64.597656 -106.59375 63.859375 -116 C 63.117188 -125.414062 61.367188 -132.578125 58.609375 -137.484375 C 55.847656 -142.398438 51.441406 -144.859375 45.390625 -144.859375 L 26.421875 -144.859375 C 26.691406 -138.535156 26.960938 -130.257812 27.234375 -120.03125 C 27.503906 -109.8125 27.640625 -97.644531 27.640625 -83.53125 C 27.640625 -75.988281 27.570312 -68.148438 27.4375 -60.015625 C 27.300781 -51.878906 27.195312 -44.078125 27.125 -36.609375 C 27.0625 -29.148438 26.960938 -22.53125 26.828125 -16.75 Z M 45.390625 -16.75 "/></g></g></g><g fill="#000000" fill-opacity="1"><g transform="translate(1018.838947, 271.642365)"><g><path d="M 27.640625 -149.90625 C 27.503906 -146.945312 27.300781 -139.953125 27.03125 -128.921875 C 26.757812 -117.890625 26.625 -102.757812 26.625 -83.53125 C 26.625 -74.78125 26.691406 -66.164062 26.828125 -57.6875 C 26.960938 -49.21875 27.0625 -41.519531 27.125 -34.59375 C 27.195312 -27.664062 27.300781 -22.117188 27.4375 -17.953125 C 27.570312 -13.785156 27.640625 -11.566406 27.640625 -11.296875 C 27.640625 -9.273438 27.707031 -7.15625 27.84375 -4.9375 C 27.976562 -2.71875 28.25 -1.070312 28.65625 0 L 18.15625 0 C 16 0 13.976562 0 12.09375 0 C 10.21875 0 8.742188 0 7.671875 0 C 8.066406 -1.070312 8.363281 -2.71875 8.5625 -4.9375 C 8.769531 -7.15625 8.875 -9.273438 8.875 -11.296875 C 8.875 -11.703125 8.941406 -12.84375 9.078125 -14.71875 C 9.210938 -16.601562 9.3125 -20 9.375 -24.90625 C 9.445312 -29.820312 9.550781 -36.953125 9.6875 -46.296875 C 9.820312 -55.648438 9.890625 -68.0625 9.890625 -83.53125 C 9.890625 -103.5625 9.785156 -118.988281 9.578125 -129.8125 C 9.378906 -140.644531 9.144531 -147.34375 8.875 -149.90625 C 8.875 -152.1875 8.671875 -154.398438 8.265625 -156.546875 C 7.867188 -158.703125 7.46875 -160.320312 7.0625 -161.40625 L 18.15625 -161.40625 C 20.175781 -161.40625 22.226562 -161.40625 24.3125 -161.40625 C 26.394531 -161.40625 28.039062 -161.40625 29.25 -161.40625 C 28.976562 -160.320312 28.640625 -158.703125 28.234375 -156.546875 C 27.835938 -154.398438 27.640625 -152.1875 27.640625 -149.90625 Z M 27.640625 -149.90625 "/></g></g></g><g fill="#000000" fill-opacity="1"><g transform="translate(1055.153862, 271.642365)"><g><path d="M 78.890625 0 L 59.71875 0 C 59.988281 -0.675781 60.054688 -1.550781 59.921875 -2.625 C 59.785156 -3.695312 59.648438 -4.503906 59.515625 -5.046875 C 58.578125 -12.035156 57.332031 -20.335938 55.78125 -29.953125 C 54.238281 -39.578125 52.523438 -50.101562 50.640625 -61.53125 C 47.273438 -61.257812 43.976562 -61.15625 40.75 -61.21875 C 37.519531 -61.289062 34.492188 -61.394531 31.671875 -61.53125 C 29.785156 -50.101562 28.066406 -39.578125 26.515625 -29.953125 C 24.972656 -20.335938 23.664062 -12.035156 22.59375 -5.046875 C 22.457031 -4.503906 22.351562 -3.695312 22.28125 -2.625 C 22.21875 -1.550781 22.320312 -0.675781 22.59375 0 L 3.4375 0 C 3.832031 -0.40625 4.097656 -0.910156 4.234375 -1.515625 C 4.367188 -2.117188 4.503906 -2.625 4.640625 -3.03125 C 8.273438 -19.164062 11.738281 -35.84375 15.03125 -53.0625 C 18.320312 -70.28125 21.378906 -87.597656 24.203125 -105.015625 C 27.035156 -122.429688 29.523438 -139.34375 31.671875 -155.75 C 31.804688 -156.6875 31.941406 -157.726562 32.078125 -158.875 C 32.210938 -160.019531 32.007812 -160.863281 31.46875 -161.40625 L 31.875 -161.40625 C 32.6875 -161.40625 34.203125 -161.40625 36.421875 -161.40625 C 38.640625 -161.40625 41.054688 -161.40625 43.671875 -161.40625 C 46.296875 -161.40625 48.550781 -161.40625 50.4375 -161.40625 L 50.84375 -161.40625 C 50.300781 -160.863281 50.097656 -160.019531 50.234375 -158.875 C 50.367188 -157.726562 50.503906 -156.6875 50.640625 -155.75 C 52.796875 -139.34375 55.285156 -122.429688 58.109375 -105.015625 C 60.929688 -87.597656 63.988281 -70.28125 67.28125 -53.0625 C 70.570312 -35.84375 74.035156 -19.164062 77.671875 -3.03125 C 77.671875 -1.8125 78.078125 -0.800781 78.890625 0 Z M 34.5 -78.28125 C 36.78125 -78.144531 39 -78.078125 41.15625 -78.078125 C 43.3125 -78.078125 45.460938 -78.210938 47.609375 -78.484375 C 46.671875 -84.265625 45.660156 -90.210938 44.578125 -96.328125 C 43.503906 -102.453125 42.363281 -108.609375 41.15625 -114.796875 C 39.945312 -108.472656 38.800781 -102.285156 37.71875 -96.234375 C 36.644531 -90.179688 35.570312 -84.195312 34.5 -78.28125 Z M 34.5 -78.28125 "/></g></g></g><g clip-path="url(#deff5c65ea)"><g transform="matrix(1, 0, 0, 1, 591, 294)"><g clip-path="url(#cf7b4700ef)"><g clip-path="url(#1b67bb9b24)"><path fill="#000000" d="M 0.484375 0.113281 L 434 0.113281 L 434 47.101562 L 0.484375 47.101562 Z M 0.484375 0.113281 " fill-opacity="1" fill-rule="nonzero"/></g></g></g></g><g clip-path="url(#66c99ec51c)"><g transform="matrix(1, 0, 0, 1, 583, 294)"><g clip-path="url(#9e77921ab2)"><g clip-path="url(#9860ed3a45)"><path fill="#000000" d="M 0.171875 0.113281 L 10.132812 0.113281 L 10.132812 47.085938 L 0.171875 47.085938 Z M 0.171875 0.113281 " fill-opacity="1" fill-rule="nonzero"/></g></g></g></g><g clip-path="url(#a1e29d0b07)"><g transform="matrix(1, 0, 0, 1, 575, 295)"><g clip-path="url(#cb7eef5d41)"><g clip-path="url(#099ab02585)"><path fill="#000000" d="M 0.308594 0.015625 L 10.273438 0.015625 L 10.273438 46.089844 L 0.308594 46.089844 Z M 0.308594 0.015625 " fill-opacity="1" fill-rule="nonzero"/></g></g></g></g><g clip-path="url(#68fb7ba175)"><g transform="matrix(1, 0, 0, 1, 569, 299)"><g clip-path="url(#af9c20a7b7)"><g clip-path="url(#7fbb63881b)"><path fill="#000000" d="M 0.0078125 0.664062 L 8.621094 0.664062 L 8.621094 42.113281 L 0.0078125 42.113281 Z M 0.0078125 0.664062 " fill-opacity="1" fill-rule="nonzero"/></g></g></g></g><g clip-path="url(#6f088abf8a)"><g clip-path="url(#d73dfe7d1e)"><g transform="matrix(1, 0, 0, 1, 935, 294)"><g clip-path="url(#84c118a399)"><g clip-path="url(#2632f2ba19)"><g clip-path="url(#09915d13a4)"><path fill="#000000" d="M -1.863281 0.113281 L 201.136719 0.113281 L 201.136719 47.101562 L -1.863281 47.101562 Z M -1.863281 0.113281 " fill-opacity="1" fill-rule="nonzero"/></g></g></g></g></g></g><g clip-path="url(#0b76fd8983)"><g transform="matrix(1, 0, 0, 1, 750, 37)"><g clip-path="url(#2588ea0d21)"><g clip-path="url(#ce29035b98)"><path fill="#000000" d="M 0 0.5 L 315.6875 0.5 L 315.6875 47.488281 L 0 47.488281 Z M 0 0.5 " fill-opacity="1" fill-rule="nonzero"/></g></g></g></g><g clip-path="url(#5b29741f2f)"><g clip-path="url(#766b167db9)"><g transform="matrix(1, 0, 0, 1, 935, 37)"><g clip-path="url(#15065e91d4)"><g clip-path="url(#2b73635494)"><g clip-path="url(#61a094084b)"><path fill="#000000" d="M -1.863281 0.5 L 201.136719 0.5 L 201.136719 47.488281 L -1.863281 47.488281 Z M -1.863281 0.5 " fill-opacity="1" fill-rule="nonzero"/></g></g></g></g></g></g><g clip-path="url(#3aa2550fb4)"><g transform="matrix(1, 0, 0, 1, 569, 37)"><g clip-path="url(#99063cd6a5)"><g clip-path="url(#39a9850f7b)"><path fill="#000000" d="M 0.0078125 0.5 L 181.917969 0.5 L 181.917969 31.648438 L 0.0078125 31.648438 Z M 0.0078125 0.5 " fill-opacity="1" fill-rule="nonzero"/></g></g></g></g><g clip-path="url(#7b6504125d)"><g clip-path="url(#21894ff238)"><g transform="matrix(1, 0, 0, 1, 721, 37)"><g clip-path="url(#bf207ac986)"><g clip-path="url(#b61ee602d7)"><g clip-path="url(#fae3f7d592)"><path fill="#000000" d="M 19.644531 0.503906 L 48.449219 22.925781 L 29.3125 47.507812 L 0.507812 25.082031 Z M 19.644531 0.503906 " fill-opacity="1" fill-rule="nonzero"/></g></g></g></g></g></g><g clip-path="url(#e3450ca1a9)"><g clip-path="url(#0e99a14e06)"><g transform="matrix(1, 0, 0, 1, 407, 37)"><g clip-path="url(#ce4fa71ba0)"><g clip-path="url(#f2853cdb3f)"><g clip-path="url(#806b33aa07)"><path fill="#000000" d="M 0.675781 0.5 L 168.222656 0.5 L 168.222656 31.652344 L 0.675781 31.652344 Z M 0.675781 0.5 " fill-opacity="1" fill-rule="nonzero"/></g></g></g></g></g></g></svg>